<svg fill="none" height="100%" width="100%" viewBox="0 0 512 512" xmlns:xlink="http://www.w3.org/1999/xlink" xmlns="http://www.w3.org/2000/svg"><defs><clipPath id="i0"><path d="M255.642,-426.16C255.642,-426.16,-256.358,-426.16,-256.358,-426.16C-256.358,-426.16,-256.358,86.84,-256.358,86.84C-256.358,86.84,255.642,86.84,255.642,86.84C255.642,86.84,255.642,-426.16,255.642,-426.16Z" data-index="0"></path></clipPath></defs><g transform="matrix(1,0,0,1,256,256)" id="i1"><g id="i2"></g></g><g transform="matrix(1,0,0,1,0,0)" id="i3"><g id="i4" transform="matrix(1,0,0,1,356.656,230.404)"><path fill="#184655" d="M-0.482,-33.655C-0.482,-33.655,7.387,-35.726,7.387,-35.726C7.387,-35.726,2.054,35.411,2.054,35.411C2.054,35.411,-7.387,35.726,-7.387,35.726C-7.387,35.726,-2.625,-31.071,-2.625,-31.071C-2.537,-32.302,-1.676,-33.341,-0.482,-33.655Z" data-index="1"></path></g><g id="i5" transform="matrix(1,0,0,1,0,0)"><g id="i4" transform="matrix(1,0,0,1,361.74,231.253)"><path fill="#f7cc7f" d="M-2.325,36.59C-2.501,36.606,-2.682,36.605,-2.865,36.583C-4.428,36.398,-5.585,34.843,-5.449,33.11C-5.449,33.11,-0.211,-33.779,-0.211,-33.779C-0.075,-35.512,1.301,-36.768,2.865,-36.583C4.428,-36.398,5.585,-34.844,5.449,-33.111C5.449,-33.111,0.211,33.779,0.211,33.779C0.091,35.31,-0.996,36.467,-2.325,36.59Z" data-index="2"></path></g><g id="i5" transform="matrix(1,0,0,1,324.499,270.308)"><path fill="#f7cc7f" d="M-37.508,1.098C-37.505,1.147,-37.503,1.197,-37.498,1.246C-37.498,1.246,-37.498,1.246,-37.498,1.246C-37.251,3.967,-35.143,6.002,-32.789,5.791C-32.789,5.791,33.668,-0.156,33.668,-0.156C36.022,-0.367,37.731,-2.744,37.485,-5.466C37.474,-5.581,37.459,-5.694,37.442,-5.806C37.442,-5.806,-37.508,1.098,-37.508,1.098Z" data-index="3"></path></g></g></g><g id="i6"><g transform="translate(315.125,293.71)"><g transform="rotate(0)"><animateTransform repeatCount="indefinite" type="rotate" attributeName="transform" dur="6.017s" begin="0s" calcMode="spline" values="0; 4; 0; 4; 0; 0" keyTimes="0; 0.249307; 0.498615; 0.747922; 0.99723; 1" keySplines="0.333 0 0.667 1; 0.333 0 0.667 1; 0.333 0 0.667 1; 0.333 0 0.667 1; 0 0 1 1" fill="freeze"></animateTransform><g transform="scale(1,1) translate(5,27.25)"><g id="i7"><g transform="translate(1.869,27.12)"><g transform="rotate(0)"><animateTransform repeatCount="indefinite" type="rotate" attributeName="transform" dur="6.017s" begin="0s" calcMode="spline" values="0; 1.7; 0; 1.7; 0; 0" keyTimes="0; 0.249307; 0.498615; 0.747922; 0.99723; 1" keySplines="0.333 0 0.667 1; 0.333 0 0.667 1; 0.333 0 0.667 1; 0.333 0 0.667 1; 0 0 1 1" fill="freeze"></animateTransform><g transform="scale(1,1) translate(-5,18.25)"><g id="i5"><path fill="#f7a491" d="M16.274,-23.076C11.922,-20.663,-1.379,-24.895,-1.379,-25.277C-1.57,-21.641,-16.274,13.94,-16.274,13.94C-16.274,13.94,-16.262,24.888,-16.262,24.888C-16.262,24.888,14.036,26.332,13.6,23.655C13.164,20.978,11.535,22.719,5.491,17.662C4.954,17.213,-3.532,15.244,-1.235,10.221C3.389,0.105,13.212,-16.761,16.274,-23.076Z" data-index="4"></path></g></g></g></g></g></g></g></g></g><g id="i6"><g transform="translate(315.125,293.71)"><g transform="rotate(0)"><animateTransform repeatCount="indefinite" type="rotate" attributeName="transform" dur="6.017s" begin="0s" calcMode="spline" values="0; 4; 0; 4; 0; 0" keyTimes="0; 0.249307; 0.498615; 0.747922; 0.99723; 1" keySplines="0.333 0 0.667 1; 0.333 0 0.667 1; 0.333 0 0.667 1; 0.333 0 0.667 1; 0 0 1 1" fill="freeze"></animateTransform><g transform="scale(1,1) translate(5,27.25)"><g id="i7"><g transform="translate(1.869,27.12)"><g transform="rotate(0)"><animateTransform repeatCount="indefinite" type="rotate" attributeName="transform" dur="6.017s" begin="0s" calcMode="spline" values="0; 1.7; 0; 1.7; 0; 0" keyTimes="0; 0.249307; 0.498615; 0.747922; 0.99723; 1" keySplines="0.333 0 0.667 1; 0.333 0 0.667 1; 0.333 0 0.667 1; 0.333 0 0.667 1; 0 0 1 1" fill="freeze"></animateTransform><g transform="scale(1,1) translate(-5,18.25)"><g id="i8"><g transform="translate(-8.275,17.85)"><g transform="rotate(0)"><animateTransform repeatCount="indefinite" type="rotate" attributeName="transform" dur="6.017s" begin="0s" calcMode="spline" values="0; 5.4; 0; 5.4; 0; 0" keyTimes="0; 0.249307; 0.498615; 0.747922; 0.99723; 1" keySplines="0.333 0 0.667 1; 0.333 0 0.667 1; 0.333 0 0.667 1; 0.333 0 0.667 1; 0 0 1 1" fill="freeze"></animateTransform><g transform="scale(1,1) translate(7.75,1.75)"><g id="i5"><path fill="#3c8f7c" d="M-16.733,5.679C-16.733,5.679,16.432,5.688,16.432,5.688C17.629,5.566,17.909,4.593,17.486,4.001C16.615,2.782,10.26,-0.092,5.987,-1.999C-1.455,-1.13,-14.538,-3.991,-15.735,-5.688C-18.885,-1.469,-17.401,5.541,-16.733,5.679Z" data-index="5" style="opacity: 1;"></path></g></g></g></g></g></g></g></g></g></g></g></g></g><g id="i6"><g transform="translate(315.125,293.71)"><g transform="rotate(0)"><animateTransform repeatCount="indefinite" type="rotate" attributeName="transform" dur="6.017s" begin="0s" calcMode="spline" values="0; 4; 0; 4; 0; 0" keyTimes="0; 0.249307; 0.498615; 0.747922; 0.99723; 1" keySplines="0.333 0 0.667 1; 0.333 0 0.667 1; 0.333 0 0.667 1; 0.333 0 0.667 1; 0 0 1 1" fill="freeze"></animateTransform><g transform="scale(1,1) translate(5,27.25)"><g id="i5"><path fill="#355389" d="M-27.665,-3.252C-28.113,-4.598,0.889,-16.905,2.187,-15.499C4.483,-13.011,-13.504,33.68,-13.504,33.68C-13.504,33.68,7.163,39.995,7.163,39.995C7.163,39.995,28.648,-13.95,27.751,-23.816C26.854,-33.682,16.091,-44.895,-7.23,-37.719C-30.551,-30.543,-27.665,-3.252,-27.665,-3.252Z" data-index="6" style="opacity: 1;"></path></g></g></g></g></g><g id="i9"><g transform="translate(249.412,305.834)"><g transform="rotate(0)"><animateTransform repeatCount="indefinite" type="rotate" attributeName="transform" dur="6.017s" begin="0s" calcMode="spline" values="0; 2.1; 0; 2.1; 0; 0" keyTimes="0; 0.249307; 0.498615; 0.747922; 0.99723; 1" keySplines="0.333 0 0.667 1; 0.333 0 0.667 1; 0.333 0 0.667 1; 0.333 0 0.667 1; 0 0 1 1" fill="freeze"></animateTransform><g transform="scale(1,1) translate(40,7.25)"><g id="i10"><g transform="translate(54.215,38.964)"><g transform="rotate(0)"><animateTransform repeatCount="indefinite" type="rotate" attributeName="transform" dur="6.017s" begin="0s" calcMode="spline" values="0; 4; 0; 4; 0; 0" keyTimes="0; 0.249307; 0.498615; 0.747922; 0.99723; 1" keySplines="0.333 0 0.667 1; 0.333 0 0.667 1; 0.333 0 0.667 1; 0.333 0 0.667 1; 0 0 1 1" fill="freeze"></animateTransform><g transform="scale(1,1) translate(0.75,24)"><g id="i5"><path fill="#f7a491" d="M8.132,-26.655C3.237,-27.547,-3.109,-27.801,-8.189,-27.889C-7.591,-23.366,-4.684,-0.173,-5.215,1.252C-7.368,7.025,-12.143,9.728,-12.143,9.728C-12.143,9.728,10.377,30.047,11.737,27.7C13.097,25.353,10.733,25.667,9.262,17.925C9.132,17.238,5.876,6.431,5.674,0.603C5.289,-10.514,7.964,-20.483,8.132,-26.655Z" data-index="7"></path></g></g></g></g></g></g></g></g></g><g id="i9"><g transform="translate(249.412,305.834)"><g transform="rotate(0)"><animateTransform repeatCount="indefinite" type="rotate" attributeName="transform" dur="6.017s" begin="0s" calcMode="spline" values="0; 2.1; 0; 2.1; 0; 0" keyTimes="0; 0.249307; 0.498615; 0.747922; 0.99723; 1" keySplines="0.333 0 0.667 1; 0.333 0 0.667 1; 0.333 0 0.667 1; 0.333 0 0.667 1; 0 0 1 1" fill="freeze"></animateTransform><g transform="scale(1,1) translate(40,7.25)"><g id="i5"><path fill="#466eb6" d="M55.872,-39.567C52.73,-41.243,44.574,-41.302,35.606,-40.721C18.121,-39.588,0.863,-36.146,-15.77,-30.637C-15.77,-30.637,-26.9,-26.951,-26.9,-26.951C-26.9,-26.951,-26.863,-38.362,-26.863,-38.362C-26.863,-38.362,-62.27,-44.286,-63.502,-35.51C-65.357,-22.295,-63.055,4.533,-51.258,10.521C-14.615,29.121,36.734,-19.111,36.92,-12.8C37.17,-4.326,44.314,27.209,46.14,41.017C51.22,41.105,59.948,41.101,63.733,40.232C64.469,13.184,64.815,-34.796,55.872,-39.567Z" data-index="8"></path></g></g></g></g></g><g id="i9"><g transform="translate(249.412,305.834)"><g transform="rotate(0)"><animateTransform repeatCount="indefinite" type="rotate" attributeName="transform" dur="6.017s" begin="0s" calcMode="spline" values="0; 2.1; 0; 2.1; 0; 0" keyTimes="0; 0.249307; 0.498615; 0.747922; 0.99723; 1" keySplines="0.333 0 0.667 1; 0.333 0 0.667 1; 0.333 0 0.667 1; 0.333 0 0.667 1; 0 0 1 1" fill="freeze"></animateTransform><g transform="scale(1,1) translate(40,7.25)"><g id="i10"><g transform="translate(54.215,38.964)"><g transform="rotate(0)"><animateTransform repeatCount="indefinite" type="rotate" attributeName="transform" dur="6.017s" begin="0s" calcMode="spline" values="0; 4; 0; 4; 0; 0" keyTimes="0; 0.249307; 0.498615; 0.747922; 0.99723; 1" keySplines="0.333 0 0.667 1; 0.333 0 0.667 1; 0.333 0 0.667 1; 0.333 0 0.667 1; 0 0 1 1" fill="freeze"></animateTransform><g transform="scale(1,1) translate(0.75,24)"><g id="i11"><g transform="translate(0.009,12.207)"><g transform="rotate(0)"><animateTransform repeatCount="indefinite" type="rotate" attributeName="transform" dur="6.017s" begin="0s" calcMode="spline" values="0; 1.7; 0; 1.7; 0; 0" keyTimes="0; 0.249307; 0.498615; 0.747922; 0.99723; 1" keySplines="0.333 0 0.667 1; 0.333 0 0.667 1; 0.333 0 0.667 1; 0.333 0 0.667 1; 0 0 1 1" fill="freeze"></animateTransform><g transform="scale(1,1) translate(0.75,3.75)"><g id="i5"><path fill="#3c8f7c" d="M-13.589,-5.755C-13.589,-5.755,11.727,14.468,11.727,14.468C12.73,15.132,13.563,14.557,13.611,13.831C13.71,12.336,10.615,6.084,8.519,1.902C2.211,-2.142,-6.106,-12.69,-5.957,-14.761C-8.626,-12.508,-14.018,-6.285,-13.589,-5.755Z" data-index="9"></path></g></g></g></g></g></g></g></g></g></g></g></g></g><g id="i12"><g transform="translate(245.282,277.54)"><g transform="rotate(0)"><animateTransform repeatCount="indefinite" type="rotate" attributeName="transform" dur="6.017s" begin="0s" calcMode="spline" values="0; 1.4; 0; 1.4; 0; 0" keyTimes="0; 0.249307; 0.498615; 0.747922; 0.99723; 1" keySplines="0.333 0 0.667 1; 0.333 0 0.667 1; 0.333 0 0.667 1; 0.333 0 0.667 1; 0 0 1 1" fill="freeze"></animateTransform><g transform="scale(1,1) translate(3.25,-43.5)"><g id="i13"><g transform="translate(6.332,-33.446)"><g transform="rotate(0)"><animateTransform repeatCount="indefinite" type="rotate" attributeName="transform" dur="6.017s" begin="0s" calcMode="spline" values="0; 2.8; 0; 2.8; 0; 0" keyTimes="0; 0.249307; 0.498615; 0.747922; 0.99723; 1" keySplines="0.333 0 0.667 1; 0.333 0 0.667 1; 0.333 0 0.667 1; 0.333 0 0.667 1; 0 0 1 1" fill="freeze"></animateTransform><g transform="scale(1,1) translate(0.5,-12.75)"><g id="i14"><g transform="translate(0.974,-28.689)"><g transform="rotate(0)"><animateTransform repeatCount="indefinite" type="rotate" attributeName="transform" dur="6.017s" begin="0s" calcMode="spline" values="0; 2.5; 0; 2.5; 0; 0" keyTimes="0; 0.249307; 0.498615; 0.747922; 0.99723; 1" keySplines="0.333 0 0.667 1; 0.333 0 0.667 1; 0.333 0 0.667 1; 0.333 0 0.667 1; 0 0 1 1" fill="freeze"></animateTransform><g transform="scale(1,1) translate(-24.5,28.5)"><g id="i5"><path fill="#13375b" d="M42.409,-24.437C41.559,-32.21,40.663,-40.013,34.219,-45.711C29.004,-50.322,22.374,-51.103,15.818,-48.636C-2.758,-41.646,6.813,-25.149,-16.874,-8.515C-24.234,-3.347,-32.346,0.191,-37.887,7.151C-45.643,16.893,-42.715,28.61,-35.646,36.434C-1.822,73.868,35.939,23.313,38.65,11.177C40.667,2.149,42.956,-19.433,42.409,-24.437Z" data-index="10"></path></g></g></g></g></g></g></g></g></g></g></g></g></g><g id="i12"><g transform="translate(245.282,277.54)"><g transform="rotate(0)"><animateTransform repeatCount="indefinite" type="rotate" attributeName="transform" dur="6.017s" begin="0s" calcMode="spline" values="0; 1.4; 0; 1.4; 0; 0" keyTimes="0; 0.249307; 0.498615; 0.747922; 0.99723; 1" keySplines="0.333 0 0.667 1; 0.333 0 0.667 1; 0.333 0 0.667 1; 0.333 0 0.667 1; 0 0 1 1" fill="freeze"></animateTransform><g transform="scale(1,1) translate(3.25,-43.5)"><g id="i5"><path fill="#50bfa5" d="M18.846,-27.108C16.083,-32.202,13.237,-36.244,13.237,-36.244C10.371,-41.339,2.967,-43.915,2.967,-43.915C2.967,-43.915,0.491,-43.865,-2.353,-43.725C-2.529,-43.253,-2.708,-42.917,-2.889,-42.781C-3.958,-41.98,-10.083,-43.015,-14.039,-40.329C-27.299,-28.962,-23.631,26.132,-22.588,43.533C-22.588,43.533,17.795,43.915,17.795,43.915C17.795,43.915,12.703,6.473,20.908,-3.146C26.622,-9.845,22.945,-19.552,18.846,-27.108Z" data-index="11"></path></g></g></g></g></g><g id="i12"><g transform="translate(245.282,277.54)"><g transform="rotate(0)"><animateTransform repeatCount="indefinite" type="rotate" attributeName="transform" dur="6.017s" begin="0s" calcMode="spline" values="0; 1.4; 0; 1.4; 0; 0" keyTimes="0; 0.249307; 0.498615; 0.747922; 0.99723; 1" keySplines="0.333 0 0.667 1; 0.333 0 0.667 1; 0.333 0 0.667 1; 0.333 0 0.667 1; 0 0 1 1" fill="freeze"></animateTransform><g transform="scale(1,1) translate(3.25,-43.5)"><g id="i13"><g transform="translate(6.332,-33.446)"><g transform="rotate(0)"><animateTransform repeatCount="indefinite" type="rotate" attributeName="transform" dur="6.017s" begin="0s" calcMode="spline" values="0; 2.8; 0; 2.8; 0; 0" keyTimes="0; 0.249307; 0.498615; 0.747922; 0.99723; 1" keySplines="0.333 0 0.667 1; 0.333 0 0.667 1; 0.333 0 0.667 1; 0.333 0 0.667 1; 0 0 1 1" fill="freeze"></animateTransform><g transform="scale(1,1) translate(0.5,-12.75)"><g id="i5"><path fill="#f7a491" d="M-6.188,-16.358C-6.188,-16.358,-8.408,-0.504,-9.958,3.348C-11.509,7.2,-1.434,15.439,6.949,17.94C15.332,20.441,4.388,9.43,4.735,5.312C5.083,1.194,6.606,-18.305,6.606,-18.305C6.606,-18.305,-6.188,-16.358,-6.188,-16.358Z" data-index="12"></path></g></g></g></g></g></g></g></g></g><g id="i12"><g transform="translate(245.282,277.54)"><g transform="rotate(0)"><animateTransform repeatCount="indefinite" type="rotate" attributeName="transform" dur="6.017s" begin="0s" calcMode="spline" values="0; 1.4; 0; 1.4; 0; 0" keyTimes="0; 0.249307; 0.498615; 0.747922; 0.99723; 1" keySplines="0.333 0 0.667 1; 0.333 0 0.667 1; 0.333 0 0.667 1; 0.333 0 0.667 1; 0 0 1 1" fill="freeze"></animateTransform><g transform="scale(1,1) translate(3.25,-43.5)"><g id="i13"><g transform="translate(6.332,-33.446)"><g transform="rotate(0)"><animateTransform repeatCount="indefinite" type="rotate" attributeName="transform" dur="6.017s" begin="0s" calcMode="spline" values="0; 2.8; 0; 2.8; 0; 0" keyTimes="0; 0.249307; 0.498615; 0.747922; 0.99723; 1" keySplines="0.333 0 0.667 1; 0.333 0 0.667 1; 0.333 0 0.667 1; 0.333 0 0.667 1; 0 0 1 1" fill="freeze"></animateTransform><g transform="scale(1,1) translate(0.5,-12.75)"><g transform="matrix(1,0,0,1,-0.131,-14.161)" id="i15"><g id="i5"><path fill="#f47458" d="M6.313,1.448C6.558,-1.778,6.737,-4.144,6.737,-4.144C6.737,-4.144,-6.057,-2.197,-6.057,-2.197C-6.057,-2.197,-6.38,-0.335,-6.737,2.299C-1.55,5.308,3.114,4.359,6.313,1.448Z" data-index="13"></path></g></g></g></g></g></g></g></g></g></g><g id="i12"><g transform="translate(245.282,277.54)"><g transform="rotate(0)"><animateTransform repeatCount="indefinite" type="rotate" attributeName="transform" dur="6.017s" begin="0s" calcMode="spline" values="0; 1.4; 0; 1.4; 0; 0" keyTimes="0; 0.249307; 0.498615; 0.747922; 0.99723; 1" keySplines="0.333 0 0.667 1; 0.333 0 0.667 1; 0.333 0 0.667 1; 0.333 0 0.667 1; 0 0 1 1" fill="freeze"></animateTransform><g transform="scale(1,1) translate(3.25,-43.5)"><g id="i13"><g transform="translate(6.332,-33.446)"><g transform="rotate(0)"><animateTransform repeatCount="indefinite" type="rotate" attributeName="transform" dur="6.017s" begin="0s" calcMode="spline" values="0; 2.8; 0; 2.8; 0; 0" keyTimes="0; 0.249307; 0.498615; 0.747922; 0.99723; 1" keySplines="0.333 0 0.667 1; 0.333 0 0.667 1; 0.333 0 0.667 1; 0.333 0 0.667 1; 0 0 1 1" fill="freeze"></animateTransform><g transform="scale(1,1) translate(0.5,-12.75)"><g transform="matrix(1,0,0,1,0.069,-28.707)" id="i16"><g id="i5"><path fill="#f7a491" d="M-2.246,-16.608C-2.246,-16.608,-7.288,-15.471,-10.402,-10.719C-13.516,-5.967,-15.653,8.021,-5.397,14.551C4.858,21.081,12.835,11.844,12.967,2.835C13.099,-6.174,11.168,-18.197,-2.246,-16.608Z" data-index="14"></path></g></g></g></g></g></g></g></g></g></g><g id="i12"><g transform="translate(245.282,277.54)"><g transform="rotate(0)"><animateTransform repeatCount="indefinite" type="rotate" attributeName="transform" dur="6.017s" begin="0s" calcMode="spline" values="0; 1.4; 0; 1.4; 0; 0" keyTimes="0; 0.249307; 0.498615; 0.747922; 0.99723; 1" keySplines="0.333 0 0.667 1; 0.333 0 0.667 1; 0.333 0 0.667 1; 0.333 0 0.667 1; 0 0 1 1" fill="freeze"></animateTransform><g transform="scale(1,1) translate(3.25,-43.5)"><g id="i13"><g transform="translate(6.332,-33.446)"><g transform="rotate(0)"><animateTransform repeatCount="indefinite" type="rotate" attributeName="transform" dur="6.017s" begin="0s" calcMode="spline" values="0; 2.8; 0; 2.8; 0; 0" keyTimes="0; 0.249307; 0.498615; 0.747922; 0.99723; 1" keySplines="0.333 0 0.667 1; 0.333 0 0.667 1; 0.333 0 0.667 1; 0.333 0 0.667 1; 0 0 1 1" fill="freeze"></animateTransform><g transform="scale(1,1) translate(0.5,-12.75)"><g transform="matrix(1,0,0,1,13.09,-29.614)" id="i17"><g id="i5"><path fill="#f7a491" d="M2.293,0.923C1.418,3.097,-0.318,4.446,-1.584,3.936C-2.85,3.426,-3.168,1.251,-2.293,-0.923C-1.418,-3.097,0.318,-4.446,1.584,-3.936C2.85,-3.426,3.168,-1.251,2.293,0.923Z" data-index="15"></path></g></g></g></g></g></g></g></g></g></g><g id="i12"><g transform="translate(245.282,277.54)"><g transform="rotate(0)"><animateTransform repeatCount="indefinite" type="rotate" attributeName="transform" dur="6.017s" begin="0s" calcMode="spline" values="0; 1.4; 0; 1.4; 0; 0" keyTimes="0; 0.249307; 0.498615; 0.747922; 0.99723; 1" keySplines="0.333 0 0.667 1; 0.333 0 0.667 1; 0.333 0 0.667 1; 0.333 0 0.667 1; 0 0 1 1" fill="freeze"></animateTransform><g transform="scale(1,1) translate(3.25,-43.5)"><g id="i13"><g transform="translate(6.332,-33.446)"><g transform="rotate(0)"><animateTransform repeatCount="indefinite" type="rotate" attributeName="transform" dur="6.017s" begin="0s" calcMode="spline" values="0; 2.8; 0; 2.8; 0; 0" keyTimes="0; 0.249307; 0.498615; 0.747922; 0.99723; 1" keySplines="0.333 0 0.667 1; 0.333 0 0.667 1; 0.333 0 0.667 1; 0.333 0 0.667 1; 0 0 1 1" fill="freeze"></animateTransform><g transform="scale(1,1) translate(0.5,-12.75)"><g transform="matrix(1,0,0,1,-9.485,-33.484)" id="i18"><g id="i5"><path fill="#13375b" d="M8.822,-12.126C8.822,-12.126,2.393,2.295,-3.256,3.583C-8.904,4.871,-8.822,12.127,-8.822,12.127C-8.822,12.127,-8.696,-4.629,-3.402,-8.473C1.891,-12.316,8.822,-12.126,8.822,-12.126Z" data-index="16"></path></g></g></g></g></g></g></g></g></g></g><g id="i12"><g transform="translate(245.282,277.54)"><g transform="rotate(0)"><animateTransform repeatCount="indefinite" type="rotate" attributeName="transform" dur="6.017s" begin="0s" calcMode="spline" values="0; 1.4; 0; 1.4; 0; 0" keyTimes="0; 0.249307; 0.498615; 0.747922; 0.99723; 1" keySplines="0.333 0 0.667 1; 0.333 0 0.667 1; 0.333 0 0.667 1; 0.333 0 0.667 1; 0 0 1 1" fill="freeze"></animateTransform><g transform="scale(1,1) translate(3.25,-43.5)"><g id="i13"><g transform="translate(6.332,-33.446)"><g transform="rotate(0)"><animateTransform repeatCount="indefinite" type="rotate" attributeName="transform" dur="6.017s" begin="0s" calcMode="spline" values="0; 2.8; 0; 2.8; 0; 0" keyTimes="0; 0.249307; 0.498615; 0.747922; 0.99723; 1" keySplines="0.333 0 0.667 1; 0.333 0 0.667 1; 0.333 0 0.667 1; 0.333 0 0.667 1; 0 0 1 1" fill="freeze"></animateTransform><g transform="scale(1,1) translate(0.5,-12.75)"><g transform="matrix(1,0,0,1,-13.363,-25.994)" id="i19"><g id="i5"><path fill="#f7a491" d="M2.866,-0.91C3.609,1.432,2.929,3.737,1.346,4.24C-0.237,4.743,-2.122,3.252,-2.866,0.91C-3.61,-1.432,-2.929,-3.737,-1.346,-4.24C0.237,-4.742,2.122,-3.252,2.866,-0.91Z" data-index="17"></path></g></g></g></g></g></g></g></g></g></g><g id="i12"><g transform="translate(245.282,277.54)"><g transform="rotate(0)"><animateTransform repeatCount="indefinite" type="rotate" attributeName="transform" dur="6.017s" begin="0s" calcMode="spline" values="0; 1.4; 0; 1.4; 0; 0" keyTimes="0; 0.249307; 0.498615; 0.747922; 0.99723; 1" keySplines="0.333 0 0.667 1; 0.333 0 0.667 1; 0.333 0 0.667 1; 0.333 0 0.667 1; 0 0 1 1" fill="freeze"></animateTransform><g transform="scale(1,1) translate(3.25,-43.5)"><g id="i20"><g transform="translate(-7.699,-33.291)"><g transform="rotate(0)"><animateTransform repeatCount="indefinite" type="rotate" attributeName="transform" dur="6.017s" begin="0s" calcMode="spline" values="0; -2.2; 0; -2.2; 0; 0" keyTimes="0; 0.249307; 0.498615; 0.747922; 0.99723; 1" keySplines="0.333 0 0.667 1; 0.333 0 0.667 1; 0.333 0 0.667 1; 0.333 0 0.667 1; 0 0 1 1" fill="freeze"></animateTransform><g transform="scale(1,1) translate(1.25,10.25)"><g id="i21"><g transform="translate(1.103,14.473)"><g transform="rotate(0)"><animateTransform repeatCount="indefinite" type="rotate" attributeName="transform" dur="6.017s" begin="0s" calcMode="spline" values="0; -2.6; 0; -2.6; 0; 0" keyTimes="0; 0.249307; 0.498615; 0.747922; 0.99723; 1" keySplines="0.333 0 0.667 1; 0.333 0 0.667 1; 0.333 0 0.667 1; 0.333 0 0.667 1; 0 0 1 1" fill="freeze"></animateTransform><g transform="scale(1,1) translate(34.5,21.75)"><g id="i5"><path fill="#f7a491" d="M39.414,17.827C36.991,16.951,33.384,16.842,33.445,16.522C33.688,15.227,44.392,19.38,42.946,17.491C42.141,16.439,34.131,12.714,32.183,13.329C30.294,13.926,17.888,17.407,17.888,17.407C17.888,17.407,-16.017,9.461,-16.017,9.461C-16.017,9.461,-24.575,-9.986,-25.41,-26.694C-32.484,-25.737,-37.301,-23.989,-43.449,-20.577C-40.484,-4.599,-33.277,21.301,-25.311,26.161C-21.96,28.206,18.056,23.714,18.056,23.714C18.056,23.714,26.874,23.09,28.315,22.536C29.408,22.115,32.221,20.532,33.752,20.098C37.231,19.113,43.43,21.586,43.449,20.905C43.463,20.409,41.89,18.722,39.414,17.827Z" data-index="18"></path></g></g></g></g></g></g></g></g></g></g></g></g></g><g id="i12"><g transform="translate(245.282,277.54)"><g transform="rotate(0)"><animateTransform repeatCount="indefinite" type="rotate" attributeName="transform" dur="6.017s" begin="0s" calcMode="spline" values="0; 1.4; 0; 1.4; 0; 0" keyTimes="0; 0.249307; 0.498615; 0.747922; 0.99723; 1" keySplines="0.333 0 0.667 1; 0.333 0 0.667 1; 0.333 0 0.667 1; 0.333 0 0.667 1; 0 0 1 1" fill="freeze"></animateTransform><g transform="scale(1,1) translate(3.25,-43.5)"><g id="i20"><g transform="translate(-7.699,-33.291)"><g transform="rotate(0)"><animateTransform repeatCount="indefinite" type="rotate" attributeName="transform" dur="6.017s" begin="0s" calcMode="spline" values="0; -2.2; 0; -2.2; 0; 0" keyTimes="0; 0.249307; 0.498615; 0.747922; 0.99723; 1" keySplines="0.333 0 0.667 1; 0.333 0 0.667 1; 0.333 0 0.667 1; 0.333 0 0.667 1; 0 0 1 1" fill="freeze"></animateTransform><g transform="scale(1,1) translate(1.25,10.25)"><g id="i5"><path fill="#96d9c9" d="M10.4,-8.322C10.074,-13.463,8.126,-18.426,2.656,-20.025C-0.734,-21.016,-4.538,-20.068,-7.247,-17.855C-10.47,-15.222,-11.37,-11,-11.355,-7.003C-11.321,2.072,-10.702,11.482,-9.044,20.417C-2.896,17.005,4.281,14.954,11.355,13.997C11.352,13.944,10.831,-1.528,10.4,-8.322Z" data-index="19"></path></g></g></g></g></g></g></g></g></g><g id="i22"><g transform="translate(189.035,134.31)"><animateTransform repeatCount="indefinite" type="translate" attributeName="transform" dur="6.017s" begin="0s" calcMode="spline" values="189.035 134.31; 189.035 121.41; 189.035 134.31; 189.035 134.31" keyTimes="0; 0.321329; 0.99723; 1" keySplines="0.333 0 0.667 1; 0.333 0 0.667 1; 0 0 1 1" fill="freeze"></animateTransform><g transform="scale(1,1) translate(0,0)"><g id="i5"><path fill="#50bfa5" d="M8.281,1.855C8.281,1.855,4.42,3.04,4.42,3.04C4.42,3.04,1.828,-2.961,1.828,-2.961C1.828,-2.961,-4.03,-1.925,-4.03,-1.925C-4.03,-1.925,-6.704,-6.098,-6.704,-6.098C-6.704,-6.098,-8.817,-4.745,-8.817,-4.745C-8.817,-4.745,-5.241,0.838,-5.241,0.838C-5.241,0.838,0.311,-0.144,0.311,-0.144C0.311,-0.144,3.008,6.098,3.008,6.098C3.008,6.098,8.817,4.316,8.817,4.316C8.817,4.316,8.281,1.855,8.281,1.855Z" data-index="20"></path></g></g></g></g><g id="i23"><g transform="translate(436.6,350.149)"><animateTransform repeatCount="indefinite" type="translate" attributeName="transform" dur="6.017s" begin="0s" calcMode="spline" values="436.6 350.149; 436.6 337.249; 436.6 350.149; 436.6 350.149" keyTimes="0; 0.340721; 0.99723; 1" keySplines="0.333 0 0.667 1; 0.333 0 0.667 1; 0 0 1 1" fill="freeze"></animateTransform><g transform="scale(1,1) translate(0,0)"><g id="i5"><path fill="#50bfa5" d="M8.281,1.855C8.281,1.855,4.42,3.04,4.42,3.04C4.42,3.04,1.828,-2.961,1.828,-2.961C1.828,-2.961,-4.03,-1.925,-4.03,-1.925C-4.03,-1.925,-6.704,-6.098,-6.704,-6.098C-6.704,-6.098,-8.817,-4.745,-8.817,-4.745C-8.817,-4.745,-5.241,0.837,-5.241,0.837C-5.241,0.837,0.311,-0.144,0.311,-0.144C0.311,-0.144,3.008,6.098,3.008,6.098C3.008,6.098,8.817,4.315,8.817,4.315C8.817,4.315,8.281,1.855,8.281,1.855Z" data-index="21"></path></g></g></g></g><g id="i24"><g transform="translate(250.194,103.455)"><animateTransform repeatCount="indefinite" type="translate" attributeName="transform" dur="6.017s" begin="0s" calcMode="spline" values="250.194 103.455; 250.194 90.555; 250.194 103.455; 250.194 103.455" keyTimes="0; 0.360111; 0.99723; 1" keySplines="0.333 0 0.667 1; 0.333 0 0.667 1; 0 0 1 1" fill="freeze"></animateTransform><g transform="scale(1,1) translate(-250.194,-103.455)"><g id="i25" transform="matrix(1,0,0,1,248.923,111.63)"><path fill="#f7cc7f" d="M-1.974,-17.647C-12.501,-15.915,-15.628,-2.098,-6.876,4.082C-5.304,5.192,-4.216,6.861,-3.753,8.729C-3.753,8.729,-2.16,15.156,-2.16,15.156C-1.721,16.927,0.006,18.064,1.806,17.768C1.806,17.768,5.794,17.111,5.794,17.111C7.595,16.815,8.866,15.185,8.714,13.367C8.161,6.732,7.476,4.324,9.633,1.365C15.942,-7.292,8.555,-19.38,-1.974,-17.647Z" data-index="22"></path></g><g id="i26" transform="matrix(1,0,0,1,248.951,111.942)"><g id="i5"><path fill="#fae0b2" d="M-0.927,10.13C-1.613,4.445,-2.575,-1.557,-2.902,-3.259C-8.936,-2.926,-6.643,-9.286,-3.858,-6.7C-3.065,-5.963,-2.689,-4.963,-2.442,-3.868C-0.438,-4.048,1.521,-4.621,3.307,-5.543C3.211,-6.945,3.072,-8.007,3.464,-8.904C4.055,-10.259,5.772,-10.628,6.471,-9.308C6.733,-8.812,6.779,-8.178,6.589,-7.653C6.185,-6.532,4.967,-5.791,3.906,-5.211C4.223,-0.692,4.662,3.862,5.216,8.347C5.216,8.347,4.646,8.418,4.646,8.418C4.101,4.005,3.667,-0.475,3.351,-4.922C1.578,-4.041,-0.352,-3.488,-2.326,-3.302C-1.913,-1.126,-1,4.724,-0.357,10.061C-0.357,10.061,-0.927,10.13,-0.927,10.13ZM-5.767,-4.599C-5.231,-4.021,-4.333,-3.767,-3.022,-3.827C-3.248,-4.793,-3.584,-5.662,-4.249,-6.279C-5.747,-7.671,-6.666,-5.569,-5.767,-4.599ZM3.99,-8.675C3.661,-7.921,3.786,-6.954,3.862,-5.844C4.724,-6.335,5.726,-6.949,6.05,-7.848C6.277,-8.478,6.021,-9.369,5.379,-9.533C5.31,-9.551,4.221,-9.204,3.99,-8.675Z" data-index="23"></path></g></g><g id="i27" transform="matrix(1,0,0,1,251.386,123.838)"></g><g id="i28" transform="matrix(1,0,0,1,238.579,85.759)"><g id="i5"><path fill="#fae0b2" d="M0.567,3.425C0.567,3.425,-2.581,-2.322,-2.581,-2.322C-2.885,-2.878,-2.682,-3.575,-2.126,-3.88C-1.57,-4.184,-0.872,-3.981,-0.567,-3.425C-0.567,-3.425,2.581,2.321,2.581,2.321C2.885,2.877,2.682,3.575,2.126,3.88C1.567,4.186,0.87,3.978,0.567,3.425Z" data-index="25"></path></g></g><g id="i29" transform="matrix(1,0,0,1,228.935,101.639)"><g id="i5"><path fill="#fae0b2" d="M3.331,1.444C3.331,1.444,-3.531,0.844,-3.531,0.844C-4.163,0.789,-4.63,0.232,-4.575,-0.4C-4.52,-1.031,-3.963,-1.5,-3.331,-1.444C-3.331,-1.444,3.531,-0.844,3.531,-0.844C4.163,-0.789,4.63,-0.232,4.575,0.4C4.52,1.031,3.964,1.499,3.331,1.444Z" data-index="26"></path></g></g><g id="i30" transform="matrix(1,0,0,1,228.95,121.133)"><g id="i5"><path fill="#fae0b2" d="M-3.489,2.987C-3.935,2.536,-3.93,1.809,-3.479,1.363C-1.792,-0.304,0.062,-1.817,2.034,-3.134C2.561,-3.486,3.275,-3.344,3.627,-2.817C3.979,-2.29,3.837,-1.577,3.31,-1.225C1.459,0.012,-0.282,1.432,-1.865,2.996C-2.314,3.439,-3.041,3.44,-3.489,2.987Z" data-index="27"></path></g></g><g id="i31" transform="matrix(1,0,0,1,257.122,83.189)"><g id="i5"><path fill="#fae0b2" d="M-1.022,5.684C-1.635,5.52,-1.999,4.891,-1.835,4.279C-1.057,1.37,-0.582,-1.63,-0.42,-4.637C-0.386,-5.27,0.154,-5.757,0.788,-5.722C1.421,-5.688,1.907,-5.147,1.873,-4.514C1.703,-1.349,1.201,1.809,0.383,4.871C0.218,5.487,-0.414,5.847,-1.022,5.684Z" data-index="28"></path></g></g><g id="i4" transform="matrix(1,0,0,1,267.832,96.287)"><g id="i5"><path fill="#fae0b2" d="M-4.666,1.406C-4.849,0.799,-4.505,0.159,-3.898,-0.024C-3.898,-0.024,3.235,-2.174,3.235,-2.174C3.843,-2.357,4.483,-2.013,4.666,-1.406C4.849,-0.799,4.505,-0.159,3.898,0.024C3.898,0.024,-3.235,2.174,-3.235,2.174C-3.841,2.356,-4.483,2.015,-4.666,1.406Z" data-index="29"></path></g></g><g id="i5" transform="matrix(1,0,0,1,271.426,114.141)"><g id="i5"><path fill="#fae0b2" d="M3.458,2.534C3.355,2.534,3.251,2.52,3.147,2.491C0.675,1.796,-1.729,0.833,-3.997,-0.372C-4.557,-0.67,-4.769,-1.365,-4.472,-1.925C-4.175,-2.485,-3.479,-2.697,-2.919,-2.4C-0.796,-1.272,1.454,-0.369,3.768,0.281C4.378,0.453,4.735,1.086,4.563,1.697C4.42,2.203,3.959,2.534,3.458,2.534Z" data-index="30"></path></g></g></g></g></g><g id="i32"><g transform="translate(381.142,153.207)"><animateTransform repeatCount="indefinite" type="translate" attributeName="transform" dur="6.017s" begin="0s" calcMode="spline" values="381.142 153.207; 381.142 140.307; 381.142 153.207; 381.142 153.207" keyTimes="0; 0.379502; 0.99723; 1" keySplines="0.333 0 0.667 1; 0.333 0 0.667 1; 0 0 1 1" fill="freeze"></animateTransform><g transform="scale(1,1) translate(0,0)"><g id="i5"><path fill="#f7cc7f" d="M-1.771,14.224C-1.771,14.224,-5.37,5.713,-5.37,5.713C-5.37,5.713,-14.422,3.853,-14.422,3.853C-15.453,3.641,-15.792,2.339,-14.997,1.65C-14.997,1.65,-8.016,-4.402,-8.016,-4.402C-8.016,-4.402,-9.044,-13.585,-9.044,-13.585C-9.161,-14.631,-8.029,-15.357,-7.127,-14.814C-7.127,-14.814,0.787,-10.044,0.787,-10.044C0.787,-10.044,9.203,-13.86,9.203,-13.86C10.162,-14.294,11.202,-13.441,10.964,-12.416C10.964,-12.416,8.873,-3.416,8.873,-3.416C8.873,-3.416,15.103,3.409,15.103,3.409C15.812,4.186,15.322,5.44,14.274,5.53C14.274,5.53,5.068,6.323,5.068,6.323C5.068,6.323,0.502,14.357,0.502,14.357C-0.018,15.272,-1.361,15.193,-1.771,14.224Z" data-index="31"></path></g></g></g></g><g id="i33"><g transform="translate(427.426,146.785)"><animateTransform repeatCount="indefinite" type="translate" attributeName="transform" dur="6.017s" begin="0s" calcMode="spline" values="427.426 146.785; 427.426 133.885; 427.426 146.785; 427.426 146.785" keyTimes="0; 0.398892; 0.99723; 1" keySplines="0.333 0 0.667 1; 0.333 0 0.667 1; 0 0 1 1" fill="freeze"></animateTransform><g transform="scale(1,1) translate(0,0)"><g id="i5"><path fill="#f48c7f" d="M9.237,-8.555C9.237,-8.555,7.757,-2.597,7.757,-2.597C7.757,-2.597,-2.092,-3.919,-2.092,-3.919C-2.092,-3.919,-5.33,4.526,-5.33,4.526C-5.33,4.526,-12.862,4.742,-12.862,4.742C-12.862,4.742,-12.753,8.555,-12.753,8.555C-12.753,8.555,-2.678,8.266,-2.678,8.266C-2.678,8.266,0.39,0.264,0.39,0.264C0.39,0.264,10.636,1.638,10.636,1.638C10.636,1.638,12.862,-7.327,12.862,-7.327C12.862,-7.327,9.237,-8.555,9.237,-8.555Z" data-index="32"></path></g></g></g></g><g id="i34"><g transform="translate(125.822,186.09)"><animateTransform repeatCount="indefinite" type="translate" attributeName="transform" dur="6.017s" begin="0s" calcMode="spline" values="125.822 186.09; 125.822 173.19; 125.822 186.09; 125.822 186.09" keyTimes="0; 0.418282; 0.99723; 1" keySplines="0.333 0 0.667 1; 0.333 0 0.667 1; 0 0 1 1" fill="freeze"></animateTransform><g transform="scale(1,1) translate(-125.822,-186.09)"><g id="i31" transform="matrix(1,0,0,1,124.801,187.892)"><path fill="#f7cc7f" d="M22.633,24.486C22.633,24.486,-29.93,14.698,-29.93,14.698C-30.986,14.501,-31.683,13.486,-31.486,12.43C-31.486,12.43,-24.901,-22.93,-24.901,-22.93C-24.704,-23.986,-23.689,-24.683,-22.633,-24.486C-22.633,-24.486,29.93,-14.698,29.93,-14.698C30.986,-14.501,31.683,-13.486,31.486,-12.43C31.486,-12.43,24.901,22.93,24.901,22.93C24.704,23.986,23.689,24.683,22.633,24.486Z" data-index="33"></path></g><g id="i4" transform="matrix(1,0,0,1,115.271,165.862)"><path fill="#f7cc7f" d="M7.143,6.091C7.143,6.091,-8.857,3.112,-8.857,3.112C-9.913,2.916,-10.609,1.901,-10.413,0.845C-10.413,0.845,-9.411,-4.536,-9.411,-4.536C-9.214,-5.592,-8.199,-6.288,-7.143,-6.091C-7.143,-6.091,8.857,-3.112,8.857,-3.112C9.913,-2.915,10.609,-1.901,10.412,-0.845C10.412,-0.845,9.411,4.536,9.411,4.536C9.214,5.592,8.199,6.288,7.143,6.091Z" data-index="34"></path></g><g id="i5" transform="matrix(1,0,0,1,125.822,189.723)"><path fill="#fae0b2" d="M24.006,21.302C23.733,22.27,22.767,22.87,21.779,22.686C21.779,22.686,-31.128,12.834,-31.128,12.834C-32.112,12.651,-32.796,11.75,-32.709,10.753C-32.709,10.753,-29.94,-20.944,-29.94,-20.944C-29.892,-21.49,-29.616,-21.991,-29.179,-22.323C-28.742,-22.655,-28.186,-22.786,-27.647,-22.686C-27.647,-22.686,31.128,-11.742,31.128,-11.742C31.665,-11.642,32.135,-11.32,32.423,-10.856C32.711,-10.392,32.791,-9.828,32.643,-9.302C32.643,-9.302,24.006,21.302,24.006,21.302Z" data-index="35"></path></g></g></g></g><g id="i35"><g transform="translate(385.448,91.95)"><animateTransform repeatCount="indefinite" type="translate" attributeName="transform" dur="6.017s" begin="0s" calcMode="spline" values="385.448 91.95; 385.448 79.05; 385.448 91.95; 385.448 91.95" keyTimes="0; 0.437673; 0.99723; 1" keySplines="0.333 0 0.667 1; 0.333 0 0.667 1; 0 0 1 1" fill="freeze"></animateTransform><g transform="scale(1,1) translate(0,0)"><g id="i5"><path fill="#50bfa5" d="M5.47,3.258C5.47,3.258,-3.531,5.716,-3.531,5.716C-3.531,5.716,-5.47,-5.192,-5.47,-5.192C-5.47,-5.192,-2.524,-5.716,-2.524,-5.716C-2.524,-5.716,-1.159,1.967,-1.159,1.967C-1.159,1.967,4.682,0.372,4.682,0.372C4.682,0.372,5.47,3.258,5.47,3.258Z" data-index="36"></path></g></g></g></g><g id="i36"><g transform="translate(122.179,260.864)"><animateTransform repeatCount="indefinite" type="translate" attributeName="transform" dur="6.017s" begin="0s" calcMode="spline" values="122.179 260.864; 122.179 247.964; 122.179 260.864; 122.179 260.864" keyTimes="0; 0.457063; 0.99723; 1" keySplines="0.333 0 0.667 1; 0.333 0 0.667 1; 0 0 1 1" fill="freeze"></animateTransform><g transform="scale(1,1) translate(-122.179,-260.864)"><g id="i31" transform="matrix(1,0,0,1,109.728,248.073)"><path fill="#355389" d="M-5.569,-3.065C-3.315,-3.248,0.146,-2.255,1.697,-1.203C1.93,-0.985,3.714,-0.275,5.569,2.798C5.569,2.798,5.152,3.087,5.152,3.087C3.195,1.038,1.879,0.579,0.311,0.109C-2.273,-0.555,-4.878,-0.059,-5.092,0.056C-5.092,0.056,-5.569,-3.065,-5.569,-3.065Z" data-index="37"></path></g><g id="i4" transform="matrix(1,0,0,1,122.179,260.864)"><path fill="#f47458" d="M-7.091,-9.849C-7.091,-9.849,-20.825,-7.557,-19.544,3.172C-18.263,13.901,-3.774,22.248,9.157,15.612C26.553,6.686,19.682,-16.009,7.3,-17.764C-5.081,-19.519,-7.091,-9.849,-7.091,-9.849Z" data-index="38"></path></g><g id="i5" transform="matrix(1,0,0,1,129.037,254.298)"><path fill="#f48c7f" d="M-8.122,-8.007C-8.122,-8.007,-4.539,-11.686,3.312,-8.339C11.163,-4.992,11.731,10.614,4.729,9.707C-2.273,8.8,-13.721,-5.755,-8.122,-8.007Z" data-index="39"></path></g></g></g></g><g id="i37"><g transform="translate(180.763,95.92)"><animateTransform repeatCount="indefinite" type="translate" attributeName="transform" dur="6.017s" begin="0s" calcMode="spline" values="180.763 95.92; 180.763 83.02; 180.763 95.92; 180.763 95.92" keyTimes="0; 0.476455; 0.99723; 1" keySplines="0.333 0 0.667 1; 0.333 0 0.667 1; 0 0 1 1" fill="freeze"></animateTransform><g transform="scale(1,1) translate(-180.763,-95.92)"><g id="i28" transform="matrix(1,0,0,1,180.763,95.92)"><path fill="#86b1f2" d="M34.632,7.836C34.632,7.836,-21.854,27.985,-21.854,27.985C-23.675,28.635,-25.677,27.686,-26.327,25.865C-26.327,25.865,-36.753,-3.363,-36.753,-3.363C-37.403,-5.184,-36.453,-7.187,-34.632,-7.836C-34.632,-7.836,21.854,-27.985,21.854,-27.985C23.675,-28.634,25.678,-27.686,26.327,-25.865C26.327,-25.865,36.753,3.363,36.753,3.363C37.403,5.184,36.453,7.186,34.632,7.836Z" data-index="40"></path></g><g id="i29" transform="matrix(1,0,0,1,167.412,100.004)"><path fill="#ffffff" d="M10.543,-3.761C12.62,2.062,9.584,8.466,3.761,10.543C-2.062,12.62,-8.466,9.584,-10.543,3.761C-12.62,-2.062,-9.584,-8.466,-3.761,-10.543C2.062,-12.62,8.466,-9.584,10.543,-3.761Z" data-index="41"></path></g><g id="i30" transform="matrix(1,0,0,1,165.907,95.785)"><path fill="#86b1f2" d="M3.109,-1.109C3.722,0.608,2.826,2.496,1.109,3.109C-0.608,3.722,-2.496,2.826,-3.109,1.109C-3.722,-0.608,-2.826,-2.496,-1.109,-3.109C0.608,-3.722,2.496,-2.826,3.109,-1.109Z" data-index="42"></path></g><g id="i31" transform="matrix(1,0,0,1,169.114,103.796)"><path fill="#86b1f2" d="M5.281,0.085C5.281,0.085,-4.655,3.629,-4.655,3.629C-4.655,3.629,-5.053,2.514,-5.053,2.514C-5.779,0.479,-4.717,-1.758,-2.683,-2.484C-2.683,-2.484,-0.114,-3.4,-0.114,-3.4C1.92,-4.126,4.157,-3.065,4.883,-1.031C4.883,-1.031,5.281,0.085,5.281,0.085Z" data-index="43"></path></g><g id="i4" transform="matrix(1,0,0,1,191.693,84.301)"><g id="i5"><path fill="#ffffff" d="M-12.346,5.832C-12.948,5.832,-13.489,5.451,-13.691,4.884C-13.955,4.142,-13.567,3.324,-12.826,3.06C-12.826,3.06,11.867,-5.749,11.867,-5.749C12.022,-5.804,12.182,-5.832,12.346,-5.832C12.948,-5.832,13.489,-5.451,13.691,-4.884C13.955,-4.143,13.568,-3.323,12.826,-3.059C12.826,-3.059,-11.867,5.749,-11.867,5.749C-12.022,5.804,-12.183,5.832,-12.346,5.832Z" data-index="44"></path></g></g><g id="i5" transform="matrix(1,0,0,1,195.656,91.421)"><g id="i5"><path fill="#ffffff" d="M-9.643,4.867C-10.245,4.867,-10.786,4.486,-10.988,3.919C-11.252,3.178,-10.864,2.359,-10.123,2.095C-10.123,2.095,9.163,-4.784,9.163,-4.784C9.318,-4.839,9.479,-4.867,9.642,-4.867C10.244,-4.867,10.785,-4.486,10.987,-3.919C11.115,-3.56,11.095,-3.173,10.932,-2.828C10.768,-2.483,10.481,-2.223,10.122,-2.095C10.122,-2.095,-9.163,4.784,-9.163,4.784C-9.318,4.839,-9.48,4.867,-9.643,4.867Z" data-index="45"></path></g></g></g></g></g><g id="i38"><g transform="translate(437.999,305.606)"><animateTransform repeatCount="indefinite" type="translate" attributeName="transform" dur="6.017s" begin="0s" calcMode="spline" values="437.999 305.606; 437.999 292.706; 437.999 305.606; 437.999 305.606" keyTimes="0; 0.495845; 0.99723; 1" keySplines="0.333 0 0.667 1; 0.333 0 0.667 1; 0 0 1 1" fill="freeze"></animateTransform><g transform="scale(1,1) translate(-437.999,-305.606)"><g id="i4" transform="matrix(1,0,0,1,0,0)"><g id="i28" transform="matrix(1,0,0,1,430.585,303.516)"><path fill="#fae0b2" d="M-15.795,21.325C-15.795,21.325,-26.134,-4.613,-26.134,-4.613C-26.654,-5.918,-26.018,-7.398,-24.713,-7.918C-24.713,-7.918,12.491,-22.746,12.491,-22.746C13.796,-23.266,15.275,-22.63,15.795,-21.325C15.795,-21.325,26.134,4.613,26.134,4.613C26.654,5.918,26.018,7.398,24.713,7.918C24.713,7.918,-12.49,22.746,-12.49,22.746C-13.795,23.266,-15.275,22.63,-15.795,21.325Z" data-index="46"></path></g><g id="i29" transform="matrix(1,0,0,1,445.918,297.918)"><path fill="#466eb6" d="M3.967,11.924C3.967,11.924,-5.323,-11.384,-5.323,-11.384C-5.473,-11.759,-5.289,-12.182,-4.915,-12.332C-4.915,-12.332,-4.915,-12.332,-4.915,-12.332C-4.541,-12.481,-4.116,-12.299,-3.967,-11.925C-3.967,-11.925,5.323,11.384,5.323,11.384C5.472,11.759,5.289,12.183,4.915,12.332C4.915,12.332,4.915,12.332,4.915,12.332C4.541,12.481,4.116,12.298,3.967,11.924Z" data-index="47"></path></g><g id="i30" transform="matrix(1,0,0,1,442.323,296.934)"><path fill="#466eb6" d="M3.136,9.839C3.136,9.839,-4.492,-9.298,-4.492,-9.298C-4.641,-9.672,-4.459,-10.097,-4.084,-10.246C-4.084,-10.246,-4.084,-10.246,-4.084,-10.246C-3.71,-10.395,-3.285,-10.213,-3.136,-9.839C-3.136,-9.839,4.492,9.299,4.492,9.299C4.641,9.673,4.458,10.097,4.084,10.246C4.084,10.246,4.084,10.246,4.084,10.246C3.709,10.395,3.286,10.214,3.136,9.839Z" data-index="48"></path></g><g id="i31" transform="matrix(1,0,0,1,440.39,300.121)"><path fill="#466eb6" d="M3.967,11.924C3.967,11.924,-5.323,-11.384,-5.323,-11.384C-5.472,-11.758,-5.29,-12.183,-4.915,-12.332C-4.915,-12.332,-4.915,-12.332,-4.915,-12.332C-4.541,-12.481,-4.116,-12.298,-3.967,-11.924C-3.967,-11.924,5.323,11.384,5.323,11.384C5.472,11.758,5.29,12.183,4.915,12.332C4.915,12.332,4.915,12.332,4.915,12.332C4.541,12.481,4.116,12.298,3.967,11.924Z" data-index="49"></path></g><g id="i4" transform="matrix(1,0,0,1,436.567,298.564)"><path fill="#466eb6" d="M2.907,9.265C2.907,9.265,-4.263,-8.725,-4.263,-8.725C-4.412,-9.1,-4.229,-9.524,-3.855,-9.673C-3.855,-9.673,-3.855,-9.673,-3.855,-9.673C-3.481,-9.822,-3.056,-9.639,-2.907,-9.265C-2.907,-9.265,4.263,8.725,4.263,8.725C4.412,9.1,4.23,9.524,3.855,9.673C3.855,9.673,3.855,9.673,3.855,9.673C3.481,9.822,3.056,9.639,2.907,9.265Z" data-index="50"></path></g><g id="i5" transform="matrix(1,0,0,1,0,0)"><g id="i39" transform="matrix(1,0,0,1,447.482,284.635)"><path fill="#355389" d="M2.153,-0.586C2.153,-0.586,1.966,-1.056,1.966,-1.056C1.897,-1.229,1.709,-1.316,1.547,-1.251C1.547,-1.251,-1.984,0.156,-1.984,0.156C-2.147,0.221,-2.222,0.413,-2.153,0.586C-2.153,0.586,-1.966,1.056,-1.966,1.056C-1.897,1.229,-1.709,1.316,-1.547,1.251C-1.547,1.251,1.984,-0.156,1.984,-0.156C2.146,-0.221,2.222,-0.413,2.153,-0.586Z" data-index="51"></path></g><g id="i40" transform="matrix(1,0,0,1,448.282,286.643)"><path fill="#355389" d="M2.153,-0.586C2.153,-0.586,1.966,-1.055,1.966,-1.055C1.897,-1.228,1.71,-1.316,1.547,-1.251C1.547,-1.251,-1.984,0.156,-1.984,0.156C-2.146,0.221,-2.222,0.413,-2.153,0.586C-2.153,0.586,-1.966,1.056,-1.966,1.056C-1.897,1.229,-1.709,1.316,-1.547,1.251C-1.547,1.251,1.984,-0.156,1.984,-0.156C2.146,-0.221,2.222,-0.413,2.153,-0.586Z" data-index="52"></path></g><g id="i41" transform="matrix(1,0,0,1,449.082,288.65)"><path fill="#355389" d="M2.153,-0.586C2.153,-0.586,1.966,-1.056,1.966,-1.056C1.897,-1.229,1.709,-1.316,1.547,-1.251C1.547,-1.251,-1.984,0.156,-1.984,0.156C-2.147,0.221,-2.222,0.413,-2.153,0.586C-2.153,0.586,-1.966,1.056,-1.966,1.056C-1.897,1.229,-1.71,1.316,-1.547,1.251C-1.547,1.251,1.984,-0.156,1.984,-0.156C2.146,-0.221,2.222,-0.413,2.153,-0.586Z" data-index="53"></path></g><g id="i25" transform="matrix(1,0,0,1,449.883,290.658)"><path fill="#355389" d="M2.153,-0.586C2.153,-0.586,1.966,-1.055,1.966,-1.055C1.897,-1.228,1.71,-1.316,1.547,-1.251C1.547,-1.251,-1.984,0.156,-1.984,0.156C-2.146,0.221,-2.222,0.413,-2.153,0.586C-2.153,0.586,-1.966,1.056,-1.966,1.056C-1.897,1.229,-1.709,1.316,-1.547,1.251C-1.547,1.251,1.984,-0.156,1.984,-0.156C2.147,-0.221,2.222,-0.413,2.153,-0.586Z" data-index="54"></path></g><g id="i26" transform="matrix(1,0,0,1,450.683,292.665)"><path fill="#355389" d="M2.153,-0.586C2.153,-0.586,1.966,-1.056,1.966,-1.056C1.897,-1.229,1.709,-1.316,1.547,-1.251C1.547,-1.251,-1.984,0.156,-1.984,0.156C-2.146,0.221,-2.222,0.413,-2.153,0.586C-2.153,0.586,-1.966,1.056,-1.966,1.056C-1.897,1.229,-1.709,1.316,-1.547,1.251C-1.547,1.251,1.984,-0.156,1.984,-0.156C2.146,-0.221,2.222,-0.413,2.153,-0.586Z" data-index="55"></path></g><g id="i27" transform="matrix(1,0,0,1,451.483,294.673)"><path fill="#355389" d="M2.153,-0.586C2.153,-0.586,1.966,-1.055,1.966,-1.055C1.897,-1.228,1.709,-1.316,1.547,-1.251C1.547,-1.251,-1.984,0.156,-1.984,0.156C-2.147,0.221,-2.222,0.414,-2.153,0.587C-2.153,0.587,-1.966,1.056,-1.966,1.056C-1.897,1.229,-1.71,1.316,-1.547,1.251C-1.547,1.251,1.984,-0.156,1.984,-0.156C2.146,-0.221,2.222,-0.413,2.153,-0.586Z" data-index="56"></path></g><g id="i28" transform="matrix(1,0,0,1,452.283,296.681)"><path fill="#355389" d="M2.153,-0.586C2.153,-0.586,1.966,-1.056,1.966,-1.056C1.897,-1.229,1.71,-1.316,1.547,-1.251C1.547,-1.251,-1.984,0.156,-1.984,0.156C-2.146,0.221,-2.222,0.413,-2.153,0.586C-2.153,0.586,-1.966,1.056,-1.966,1.056C-1.897,1.229,-1.709,1.316,-1.547,1.251C-1.547,1.251,1.984,-0.156,1.984,-0.156C2.146,-0.221,2.222,-0.413,2.153,-0.586Z" data-index="57"></path></g><g id="i29" transform="matrix(1,0,0,1,453.083,298.688)"><path fill="#355389" d="M2.153,-0.586C2.153,-0.586,1.966,-1.056,1.966,-1.056C1.897,-1.229,1.709,-1.316,1.547,-1.251C1.547,-1.251,-1.984,0.156,-1.984,0.156C-2.147,0.221,-2.222,0.413,-2.153,0.586C-2.153,0.586,-1.966,1.056,-1.966,1.056C-1.897,1.229,-1.71,1.316,-1.547,1.251C-1.547,1.251,1.984,-0.156,1.984,-0.156C2.146,-0.221,2.222,-0.413,2.153,-0.586Z" data-index="58"></path></g><g id="i30" transform="matrix(1,0,0,1,453.884,300.696)"><path fill="#355389" d="M2.153,-0.587C2.153,-0.587,1.966,-1.056,1.966,-1.056C1.897,-1.229,1.71,-1.316,1.547,-1.251C1.547,-1.251,-1.984,0.156,-1.984,0.156C-2.146,0.221,-2.222,0.413,-2.153,0.586C-2.153,0.586,-1.966,1.055,-1.966,1.055C-1.897,1.228,-1.709,1.316,-1.547,1.251C-1.547,1.251,1.984,-0.156,1.984,-0.156C2.147,-0.221,2.222,-0.414,2.153,-0.587Z" data-index="59"></path></g><g id="i31" transform="matrix(1,0,0,1,454.684,302.703)"><path fill="#355389" d="M2.153,-0.586C2.153,-0.586,1.966,-1.056,1.966,-1.056C1.897,-1.229,1.709,-1.316,1.547,-1.251C1.547,-1.251,-1.984,0.156,-1.984,0.156C-2.146,0.221,-2.222,0.413,-2.153,0.586C-2.153,0.586,-1.966,1.056,-1.966,1.056C-1.897,1.229,-1.709,1.316,-1.547,1.251C-1.547,1.251,1.984,-0.156,1.984,-0.156C2.146,-0.221,2.222,-0.413,2.153,-0.586Z" data-index="60"></path></g><g id="i4" transform="matrix(1,0,0,1,455.484,304.711)"><path fill="#355389" d="M2.153,-0.586C2.153,-0.586,1.966,-1.056,1.966,-1.056C1.897,-1.229,1.71,-1.316,1.547,-1.251C1.547,-1.251,-1.984,0.156,-1.984,0.156C-2.146,0.221,-2.222,0.413,-2.153,0.586C-2.153,0.586,-1.966,1.055,-1.966,1.055C-1.897,1.228,-1.709,1.316,-1.547,1.251C-1.547,1.251,1.984,-0.156,1.984,-0.156C2.146,-0.221,2.222,-0.413,2.153,-0.586Z" data-index="61"></path></g><g id="i5" transform="matrix(1,0,0,1,456.284,306.718)"><path fill="#355389" d="M2.153,-0.586C2.153,-0.586,1.966,-1.056,1.966,-1.056C1.897,-1.229,1.709,-1.316,1.547,-1.251C1.547,-1.251,-1.984,0.156,-1.984,0.156C-2.146,0.221,-2.222,0.413,-2.153,0.586C-2.153,0.586,-1.966,1.056,-1.966,1.056C-1.897,1.229,-1.709,1.316,-1.547,1.251C-1.547,1.251,1.984,-0.156,1.984,-0.156C2.146,-0.221,2.222,-0.413,2.153,-0.586Z" data-index="62"></path></g></g></g><g id="i5" transform="matrix(1,0,0,1,0,0)"><g id="i4" transform="matrix(1,0,0,1,461.772,317.222)"><path fill="#b75742" d="M6.42,-13.156C6.42,-13.156,-8.345,7.869,-8.345,7.869C-8.378,7.916,-8.404,7.967,-8.422,8.022C-8.422,8.022,-9.927,12.642,-9.927,12.642C-10.102,13.18,-9.481,13.624,-9.029,13.283C-9.029,13.283,-5.077,10.304,-5.077,10.304C-5.029,10.268,-4.986,10.224,-4.951,10.175C-4.951,10.175,9.852,-10.905,9.852,-10.905C10.041,-11.174,9.968,-11.547,9.69,-11.725C9.69,-11.725,7.205,-13.311,7.205,-13.311C6.944,-13.478,6.598,-13.409,6.42,-13.156Z" data-index="63"></path></g><g id="i5" transform="matrix(1,0,0,1,454.36,327.808)"><path fill="#f7cc7f" d="M2.445,-0.389C2.445,-0.389,2.408,-0.337,2.408,-0.337C2.408,-0.337,-1.405,2.537,-1.405,2.537C-1.405,2.537,-2.445,1.842,-2.445,1.842C-2.445,1.842,-1.018,-2.537,-1.018,-2.537C0.099,-1.926,1.438,-1.299,2.445,-0.389Z" data-index="64"></path></g></g></g></g></g><g id="i42"><g transform="translate(333.291,92.753)"><animateTransform repeatCount="indefinite" type="translate" attributeName="transform" dur="6.017s" begin="0s" calcMode="spline" values="333.291 92.753; 333.291 79.853; 333.291 92.753; 333.291 92.753" keyTimes="0; 0.515236; 0.99723; 1" keySplines="0.333 0 0.667 1; 0.333 0 0.667 1; 0 0 1 1" fill="freeze"></animateTransform><g transform="scale(1,1) translate(-333.291,-92.753)"><g id="i4" transform="matrix(1,0,0,1,330.11,94.554)"><path fill="#466eb6" d="M-11.504,-18.103C-9.378,-16.407,-5.681,-10.948,-0.964,-7.116C1.795,-4.875,3.922,-5.445,7.444,-5.019C24.157,-2.999,19.628,0.417,21.632,0.753C21.063,2.063,15.856,13.131,14.883,15.368C13.986,17.432,12.434,18.355,10.186,18.044C6.73,17.566,3.242,17.211,-0.16,16.473C-8.882,14.581,-13.736,10.219,-19.987,4.921C-21.645,3.515,-22.054,1.762,-21.194,-0.225C-17.192,-9.471,-11.938,-17.252,-11.504,-18.103Z" data-index="65"></path></g><g id="i5" transform="matrix(1,0,0,1,333.291,92.728)"><path fill="#86b1f2" d="M20.261,15.893C20.186,19.535,20.465,20.266,18.901,19.714C17.959,19.381,17.047,18.948,16.158,18.489C15.531,18.165,15.506,17.738,16.016,17.226C16.758,16.481,17.52,15.755,18.262,15.032C17.719,13.604,18.341,11.942,19.677,11.16C19.95,11,19.75,11.338,22.078,5.982C14.382,5.032,8.951,4.395,-0.439,3.241C-2.949,2.932,-5.182,1.956,-7.124,0.332C-13.831,-5.279,-20.537,-10.892,-27.239,-16.509C-28.148,-17.271,-28.263,-18.388,-27.541,-19.247C-26.989,-19.904,-26.257,-19.936,-25.471,-19.837C-23.327,-19.568,-2.317,-16.957,-0.184,-16.708C2.619,-16.38,5.088,-15.325,7.255,-13.51C13.844,-7.993,20.449,-2.495,27.046,3.012C27.951,3.768,28.197,4.462,27.879,5.302C27.53,6.225,26.767,6.666,25.614,6.417C24.781,6.237,24.413,6.488,24.127,7.259C22.833,10.743,21.93,11.514,22.242,12.786C22.483,13.768,21.316,15.467,20.261,15.893Z" data-index="66"></path></g></g></g></g><g id="i43"><g transform="translate(407.186,368.659)"><animateTransform repeatCount="indefinite" type="translate" attributeName="transform" dur="6.017s" begin="0s" calcMode="spline" values="407.186 368.659; 407.186 355.759; 407.186 368.659; 407.186 368.659" keyTimes="0; 0.534626; 0.99723; 1" keySplines="0.333 0 0.667 1; 0.333 0 0.667 1; 0 0 1 1" fill="freeze"></animateTransform><g transform="scale(1,1) translate(-407.186,-368.659)"><g id="i30" transform="matrix(1,0,0,1,407.224,368.749)"><path fill="#466eb6" d="M-18.815,-12.72C-18.815,-12.72,-14.986,-9.069,-14.986,-9.069C-5.929,-0.431,1.458,9.805,6.802,21.122C6.802,21.122,7.388,22.364,7.388,22.364C7.388,22.364,17.415,23.25,18.815,14.185C18.815,14.185,18.815,14.185,18.815,14.185C10.018,4.251,2.776,-6.352,-3.2,-18.148C-3.2,-18.148,-5.012,-22.388,-5.012,-22.388C-5.012,-22.388,-18.815,-12.72,-18.815,-12.72Z" data-index="67"></path></g><g id="i31" transform="matrix(1,0,0,1,395.297,351.175)"><path fill="#86b1f2" d="M6.907,-4.826C7.399,-4.12,4.71,-1.394,0.9,1.263C-2.909,3.92,-6.415,5.533,-6.907,4.828C-7.399,4.122,-4.692,1.364,-0.882,-1.293C2.928,-3.95,6.415,-5.531,6.907,-4.826Z" data-index="68"></path></g><g id="i4" transform="matrix(1,0,0,1,396.844,350.582)"><path fill="#355389" d="M5.375,-4.207C5.375,-4.207,5.362,-4.221,5.362,-4.221C5.362,-4.221,-2.271,2.24,-5.417,2.899C-5.417,2.899,-4.445,4.221,-4.445,4.221C-3.296,3.599,-1.991,2.793,-0.648,1.856C3.118,-0.77,5.789,-3.464,5.375,-4.207Z" data-index="69"></path></g><g id="i5" transform="matrix(1,0,0,1,0,0)"><g id="i30" transform="matrix(1,0,0,1,409.206,370.18)"><path fill="#b75742" d="M3.21,-5.048C3.224,-3.934,2.798,0.873,-5.2,2.879C-4.674,3.595,-4.157,4.318,-3.649,5.048C1.413,3.551,3.69,0.952,4.713,-1.026C4.874,-1.339,5.07,-1.76,5.2,-2.084C4.525,-3.064,3.862,-4.052,3.21,-5.048Z" data-index="70"></path></g><g id="i31" transform="matrix(1,0,0,1,399.085,373.913)"><path fill="#b75742" d="M5.638,-2.275C5.638,-2.275,-6.131,-2.696,-6.131,-2.696C-6.131,-2.696,-3.342,-0.329,-3.342,-0.329C-3.342,-0.329,-5.009,2.696,-5.009,2.696C-5.009,2.696,6.131,-0.144,6.131,-0.144C6.131,-0.144,5.638,-2.275,5.638,-2.275Z" data-index="71"></path></g><g id="i4" transform="matrix(1,0,0,1,404.634,378.615)"><path fill="#b75742" d="M1.163,-4.239C1.163,-4.239,-3.02,3.046,-3.02,3.046C-3.02,3.046,-0.078,1.926,-0.078,1.926C-0.078,1.926,1.054,4.239,1.054,4.239C1.054,4.239,3.02,-3.423,3.02,-3.423C3.02,-3.423,1.163,-4.239,1.163,-4.239Z" data-index="72"></path></g><g id="i5" transform="matrix(1,0,0,1,407.121,372.494)"><path fill="#f47458" d="M0.273,3.856C-1.794,4.002,-3.592,2.395,-3.743,0.265C-3.894,-1.865,-2.34,-3.71,-0.273,-3.856C1.794,-4.002,3.592,-2.395,3.743,-0.265C3.894,1.865,2.34,3.71,0.273,3.856Z" data-index="73"></path></g></g></g></g></g><g id="i44"><g transform="translate(432.322,191.658)"><animateTransform repeatCount="indefinite" type="translate" attributeName="transform" dur="6.017s" begin="0s" calcMode="spline" values="432.322 191.658; 432.322 178.758; 432.322 191.658; 432.322 191.658" keyTimes="0; 0.554017; 0.99723; 1" keySplines="0.333 0 0.667 1; 0.333 0 0.667 1; 0 0 1 1" fill="freeze"></animateTransform><g transform="scale(1,1) translate(-432.322,-191.658)"><g id="i4" transform="matrix(1,0,0,1,432.322,191.658)"><path fill="#9bc1f9" d="M0.056,19.402C0.056,19.402,-24.731,-2.717,-24.731,-2.717C-26.342,-4.154,-25.671,-7.111,-23.449,-8.369C-23.449,-8.369,-3.667,-19.571,-3.667,-19.571C-2.401,-20.288,-0.974,-20.221,-0.056,-19.402C-0.056,-19.402,24.731,2.717,24.731,2.717C26.341,4.154,25.671,7.111,23.449,8.369C23.449,8.369,3.667,19.57,3.667,19.57C2.4,20.287,0.974,20.221,0.056,19.402Z" data-index="74"></path></g><g id="i5" transform="matrix(1,0,0,1,441.048,186.605)"><g id="i5"><path fill="#ffffff" d="M-9.845,6.861C-9.845,6.861,-11.911,-10.133,-11.911,-10.133C-11.99,-10.784,-11.517,-11.479,-10.853,-11.686C-10.189,-11.893,-9.586,-11.532,-9.507,-10.882C-9.507,-10.882,-7.605,4.755,-7.605,4.755C-7.605,4.755,11.19,9.3,11.19,9.3C11.802,9.448,12.085,10.108,11.82,10.776C11.555,11.442,10.843,11.864,10.229,11.715C10.229,11.715,-9.845,6.861,-9.845,6.861Z" data-index="75"></path></g></g></g></g></g><g id="i45"><g transform="translate(119.59,126.26)"><animateTransform repeatCount="indefinite" type="translate" attributeName="transform" dur="6.017s" begin="0s" calcMode="spline" values="119.59 126.26; 119.59 113.36; 119.59 126.26; 119.59 126.26" keyTimes="0; 0.573407; 0.99723; 1" keySplines="0.333 0 0.667 1; 0.333 0 0.667 1; 0 0 1 1" fill="freeze"></animateTransform><g transform="scale(1,1) translate(0,0)"><g id="i5"><path fill="#f7cc7f" d="M-12.063,-10.633C-12.063,-10.633,-9.501,-5.565,-9.501,-5.565C-9.501,-5.565,-3.712,-5.752,-3.712,-5.752C-3.712,-5.752,-1.242,0.132,-1.242,0.132C-1.242,0.132,4.861,-1.969,4.861,-1.969C4.861,-1.969,7.948,4.563,7.948,4.563C7.948,4.563,13.807,3.322,13.807,3.322C13.807,3.322,17.804,9.12,17.804,9.12C17.804,9.12,15.61,10.633,15.61,10.633C15.61,10.633,12.621,6.298,12.621,6.298C12.621,6.298,6.438,7.607,6.438,7.607C6.438,7.607,3.471,1.329,3.471,1.329C3.471,1.329,-2.735,3.465,-2.735,3.465C-2.735,3.465,-5.46,-3.029,-5.46,-3.029C-5.46,-3.029,-11.113,-2.846,-11.113,-2.846C-11.113,-2.846,-13.487,-7.544,-13.487,-7.544C-13.487,-7.544,-17.174,-6.647,-17.174,-6.647C-17.174,-6.647,-17.804,-9.237,-17.804,-9.237C-17.804,-9.237,-12.063,-10.633,-12.063,-10.633Z" data-index="76"></path></g></g></g></g><g id="i46"><g transform="translate(433.553,245.227)"><animateTransform repeatCount="indefinite" type="translate" attributeName="transform" dur="6.017s" begin="0s" calcMode="spline" values="433.553 245.227; 433.553 232.327; 433.553 245.227; 433.553 245.227" keyTimes="0; 0.592797; 0.99723; 1" keySplines="0.333 0 0.667 1; 0.333 0 0.667 1; 0 0 1 1" fill="freeze"></animateTransform><g transform="scale(1,1) translate(0,0)"><g id="i5"><path fill="#50bfa5" d="M-16.042,0.055C-16.042,0.055,-10.78,2.193,-10.78,2.193C-10.78,2.193,-6.539,-1.751,-6.539,-1.751C-6.539,-1.751,-0.811,1.063,-0.811,1.063C-0.811,1.063,2.411,-4.53,2.411,-4.53C2.411,-4.53,9.028,-1.633,9.028,-1.633C9.028,-1.633,12.63,-6.418,12.63,-6.418C12.63,-6.418,19.454,-4.672,19.454,-4.672C19.454,-4.672,18.793,-2.09,18.793,-2.09C18.793,-2.09,13.691,-3.395,13.691,-3.395C13.691,-3.395,9.89,1.654,9.89,1.654C9.89,1.654,3.529,-1.131,3.529,-1.131C3.529,-1.131,0.253,4.557,0.253,4.557C0.253,4.557,-6.068,1.451,-6.068,1.451C-6.068,1.451,-10.21,5.302,-10.21,5.302C-10.21,5.302,-15.086,3.32,-15.086,3.32C-15.086,3.32,-17.277,6.418,-17.277,6.418C-17.277,6.418,-19.454,4.879,-19.454,4.879C-19.454,4.879,-16.042,0.055,-16.042,0.055Z" data-index="77"></path></g></g></g></g><g id="i47"><g transform="translate(173.797,421.552)"><g transform="rotate(0)"><animateTransform repeatCount="indefinite" type="rotate" attributeName="transform" dur="6.017s" begin="0s" calcMode="spline" values="0; 3; 0; 0" keyTimes="0; 0.498615; 0.99723; 1" keySplines="0.333 0 0.667 1; 0.333 0 0.667 1; 0 0 1 1" fill="freeze"></animateTransform><g transform="scale(1,1)"><animateTransform repeatCount="indefinite" type="scale" attributeName="transform" dur="6.017s" begin="0s" calcMode="spline" values="1 1; 1.02 1.02; 1 1; 1 1" keyTimes="0; 0.498615; 0.99723; 1" keySplines="0.333 0 0.667 1; 0.333 0 0.667 1; 0 0 1 1" fill="freeze"></animateTransform><g transform="translate(-173.797,-421.552)"><g id="i5" transform="matrix(1,0,0,1,186.297,342.158)"><g id="i5"><path fill="#50bfa5" d="M-12.767,80.893C-12.767,80.893,-33.367,11.072,-35.02,-4.33C-36.673,-19.731,-25.154,-14.959,-25.154,-14.959C-25.154,-14.959,-34.844,-44.306,-27.837,-51.272C-20.83,-58.237,-14.509,-45.254,-14.509,-45.254C-14.509,-45.254,-12.388,-80.88,-4.917,-80.893C8.999,-80.918,8.725,-42.04,8.725,-42.04C8.725,-42.04,12.276,-57.261,19.727,-53.088C30.964,-46.795,14.85,-16.292,14.85,-16.292C14.85,-16.292,29.169,-16.281,34.198,-9.062C43.222,3.891,-12.767,80.893,-12.767,80.893Z" data-index="78"></path></g></g></g></g></g></g></g><g id="i48"><g transform="translate(179.337,413.951)"><g transform="rotate(0)"><animateTransform repeatCount="indefinite" type="rotate" attributeName="transform" dur="6.017s" begin="0s" calcMode="spline" values="0; 5; 0; 0" keyTimes="0; 0.498615; 0.99723; 1" keySplines="0.333 0 0.667 1; 0.333 0 0.667 1; 0 0 1 1" fill="freeze"></animateTransform><g transform="scale(1,1)"><animateTransform repeatCount="indefinite" type="scale" attributeName="transform" dur="6.017s" begin="0s" calcMode="spline" values="1 1; 1.03 1.03; 1 1; 1 1" keyTimes="0; 0.498615; 0.99723; 1" keySplines="0.333 0 0.667 1; 0.333 0 0.667 1; 0 0 1 1" fill="freeze"></animateTransform><g transform="translate(-179.337,-413.951)"><g id="i4" transform="matrix(1,0,0,1,126.837,362.442)"><g id="i5"><path fill="#50bfa5" d="M53.427,51.368C53.427,51.368,-5.959,41.437,-18.876,30.915C-31.793,20.392,-19.008,15.647,-19.008,15.647C-19.008,15.647,-48.841,0.354,-48.496,-10.045C-48.151,-20.444,-33.33,-15.157,-33.33,-15.157C-33.33,-15.157,-58.467,-43.82,-52.516,-49.264C-41.431,-59.403,-12.371,-29.607,-12.371,-29.607C-12.371,-29.607,-21,-43.776,-11.913,-46.019C1.792,-49.401,11.906,-14.461,11.906,-14.461C11.906,-14.461,9.336,-28.259,18.786,-26.421C35.741,-23.123,53.427,51.368,53.427,51.368Z" data-index="79"></path></g></g><g id="i5" transform="matrix(1,0,0,1,127.192,362.451)"><path fill="#3c8f7c" d="M18.431,-26.43C8.958,-28.143,11.551,-14.469,11.551,-14.469C11.551,-14.469,1.437,-49.41,-12.268,-46.028C-21.355,-43.785,-12.727,-29.615,-12.727,-29.615C-12.727,-29.615,-41.786,-59.411,-52.871,-49.272C-52.871,-49.272,52.871,51.376,52.871,51.376C50.989,41.763,34.313,-23.558,18.431,-26.43Z" data-index="80"></path></g></g></g></g></g></g><g id="i49"><g transform="translate(194.1,421.758)"><g transform="rotate(0)"><animateTransform repeatCount="indefinite" type="rotate" attributeName="transform" dur="6.017s" begin="0s" calcMode="spline" values="0; 3; 0; 0" keyTimes="0; 0.498615; 0.99723; 1" keySplines="0.333 0 0.667 1; 0.333 0 0.667 1; 0 0 1 1" fill="freeze"></animateTransform><g transform="scale(1,1)"><animateTransform repeatCount="indefinite" type="scale" attributeName="transform" dur="6.017s" begin="0s" calcMode="spline" values="1 1; 1.02 1.02; 1 1; 1 1" keyTimes="0; 0.498615; 0.99723; 1" keySplines="0.333 0 0.667 1; 0.333 0 0.667 1; 0 0 1 1" fill="freeze"></animateTransform><g transform="translate(-194.1,-421.758)"><g id="i4" transform="matrix(1,0,0,1,133.1,399.826)"><path fill="#355389" d="M64.059,22.175C64.059,22.175,32.785,-9.63,17.035,-12.942C1.285,-16.254,4.119,-5.048,4.119,-5.048C4.119,-5.048,-27.129,-32.374,-34.37,-25.753C-41.611,-19.132,-33.778,-12.74,-33.778,-12.74C-33.778,-12.74,-59.806,-17.352,-63.532,-8.811C-69.257,4.314,-26.451,11.457,-26.451,11.457C-26.451,11.457,-44.389,12.699,-40.229,20.929C-33.955,33.34,64.059,22.175,64.059,22.175Z" data-index="81"></path></g><g id="i5" transform="matrix(1,0,0,1,133.364,397.452)"><path fill="#466eb6" d="M-63.796,-6.436C-60.07,-14.977,-34.042,-10.366,-34.042,-10.366C-34.042,-10.366,-41.875,-16.758,-34.634,-23.379C-27.393,-30,2.884,-6.39,2.884,-6.39C2.884,-6.39,-4.255,-20.035,11.495,-16.723C27.244,-13.411,63.796,24.55,63.796,24.55C63.796,24.55,-63.796,-6.436,-63.796,-6.436Z" data-index="82"></path></g></g></g></g></g></g><g transform="matrix(1,0,0,1,256.358,407.722)" id="i50"><g id="i5"><path fill="#b75742" d="M92.554,16.112C92.554,16.112,-80.58,16.112,-80.58,16.112C-87.193,16.112,-92.554,10.551,-92.554,3.692C-92.554,3.692,-92.554,-3.692,-92.554,-3.692C-92.554,-10.551,-87.193,-16.112,-80.58,-16.112C-80.58,-16.112,92.554,-16.112,92.554,-16.112C92.554,-16.112,92.554,-16.112,92.554,-16.112C84.634,-7.133,84.497,6.589,92.236,15.736C92.236,15.736,92.554,16.112,92.554,16.112Z" data-index="83" style="opacity: 1;"></path></g></g><g transform="matrix(1,0,0,1,292.241,407.721)" id="i51"><g id="i5"><path fill="#fae0b2" d="M53.997,-12.419C53.997,-12.419,-42.032,-12.419,-42.032,-12.419C-48.645,-12.419,-54.006,-6.859,-54.006,0C-54.006,0,-54.006,0,-54.006,0C-54.006,6.859,-48.645,12.419,-42.032,12.419C-42.032,12.419,54.006,12.419,54.006,12.419C49.519,4.8,49.527,-4.82,53.997,-12.419Z" data-index="84" style="opacity: 1;"></path></g></g><g transform="matrix(1,0,0,1,235.477,379.913)" id="i52"><g id="i5"><path fill="#86b1f2" d="M52.61,-10.682C52.862,-11.154,52.479,-11.701,51.897,-11.701C51.897,-11.701,-39.715,-11.701,-39.715,-11.701C-46.895,-11.701,-52.716,-6.462,-52.716,0C-52.716,0,-52.716,0,-52.716,0C-52.716,6.462,-46.895,11.701,-39.715,11.701C-39.715,11.701,51.922,11.701,51.922,11.701C52.507,11.701,52.89,11.151,52.636,10.677C52.636,10.677,52.636,10.677,52.636,10.677C49.008,3.914,49.018,-3.949,52.61,-10.682Z" data-index="85"></path></g></g><g transform="matrix(1,0,0,1,257.327,380.195)" id="i53"><g id="i5"><path fill="#f7cc7f" d="M30.181,-9.805C30.181,-9.805,-15.221,-9.805,-15.221,-9.805C-23.648,-9.805,-30.48,-5.416,-30.48,0C-30.48,5.415,-23.648,9.805,-15.221,9.805C-15.221,9.805,30.48,9.805,30.48,9.805C27.356,3.565,27.27,-3.538,30.181,-9.805Z" data-index="86" style="opacity: 1;"></path></g></g><g transform="matrix(1,0,0,1,0,0)" id="i54"><g id="i4" transform="matrix(1,0,0,1,271.676,375.558)"><path fill="#b75742" d="M4.108,-0.52C4.108,-0.52,-1.805,-0.52,-1.805,-0.52C-3.077,-0.52,-4.108,-0.093,-4.108,0.434C-4.108,0.434,-4.108,0.52,-4.108,0.52C-4.108,0.52,4.108,0.52,4.108,0.52C4.108,0.52,4.108,-0.52,4.108,-0.52Z" data-index="87"></path></g><g id="i5" transform="matrix(1,0,0,1,275.313,388.763)"><path fill="#f47458" d="M5.514,-11.334C5.514,-12.655,3.97,-13.725,2.065,-13.725C2.065,-13.725,-5.523,-13.725,-5.523,-13.725C-4.078,-13.725,-2.907,-12.913,-2.907,-11.911C-2.907,-11.911,-2.943,13.725,-2.943,13.725C-2.943,13.725,1.25,10.428,1.25,10.428C1.25,10.428,5.523,13.725,5.523,13.725C5.523,13.725,5.514,-11.334,5.514,-11.334Z" data-index="88"></path></g></g><g transform="matrix(1,0,0,1,0,0.001)" id="i55"><g id="i31" transform="matrix(1,0,0,1,240.312,357.21)"><path fill="#fae0b2" d="M30.931,10.158C30.931,10.158,-22.373,10.158,-22.373,10.158C-27.1,10.158,-30.931,5.61,-30.931,0C-30.931,0,-30.931,0,-30.931,0C-30.931,-5.61,-27.1,-10.158,-22.373,-10.158C-22.373,-10.158,30.931,-10.158,30.931,-10.158C30.931,-10.158,30.931,-10.158,30.931,-10.158C26.857,-4.526,26.698,3.734,30.551,9.581C30.551,9.581,30.931,10.158,30.931,10.158Z" data-index="89" style="opacity: 1;"></path></g><g id="i4" transform="matrix(1,0,0,1,224.731,357.21)"><path fill="#466eb6" d="M-15.345,0C-15.345,0,-15.345,0,-15.345,0C-15.345,-5.61,-11.422,-10.158,-6.584,-10.158C-6.584,-10.158,47.529,-10.158,47.529,-10.158C47.782,-10.158,47.986,-10.397,47.983,-10.69C47.983,-10.69,47.983,-10.69,47.983,-10.69C47.981,-10.979,47.778,-11.211,47.529,-11.211C47.529,-11.211,-38.314,-11.211,-38.314,-11.211C-43.654,-11.211,-47.983,-6.192,-47.983,0C-47.983,0,-47.983,0,-47.983,0C-47.983,6.192,-43.654,11.211,-38.314,11.211C-38.314,11.211,47.529,11.211,47.529,11.211C47.778,11.211,47.981,10.978,47.983,10.689C47.983,10.689,47.983,10.689,47.983,10.689C47.985,10.396,47.781,10.158,47.529,10.158C47.529,10.158,-6.584,10.158,-6.584,10.158C-11.422,10.158,-15.345,5.61,-15.345,0Z" data-index="90"></path></g><g id="i5" transform="matrix(1,0,0,1,0,0)"><g id="i4" transform="matrix(1,0,0,1,257.828,352.554)"><path fill="#184655" d="M4.108,-0.51C4.108,-0.51,-1.805,-0.51,-1.805,-0.51C-3.077,-0.51,-4.108,-0.091,-4.108,0.426C-4.108,0.426,-4.108,0.51,-4.108,0.51C-4.108,0.51,4.108,0.51,4.108,0.51C4.108,0.51,4.108,-0.51,4.108,-0.51Z" data-index="91"></path></g><g id="i5" transform="matrix(1,0,0,1,261.466,365.504)"><path fill="#3c8f7c" d="M5.514,-11.114C5.514,-12.41,3.97,-13.46,2.065,-13.46C2.065,-13.46,-5.523,-13.46,-5.523,-13.46C-4.078,-13.46,-2.907,-12.663,-2.907,-11.681C-2.907,-11.681,-2.943,13.46,-2.943,13.46C-2.943,13.46,1.25,10.227,1.25,10.227C1.25,10.227,5.523,13.46,5.523,13.46C5.523,13.46,5.514,-11.114,5.514,-11.114Z" data-index="92" style="opacity: 1;"></path></g></g></g><g transform="matrix(1,0,0,1,231.131,335.108)" id="i56"><g id="i5"><path fill="#f47458" d="M72.03,-10.894C72.03,-10.894,-64.362,-10.894,-64.362,-10.894C-68.597,-10.894,-72.03,-7.46,-72.03,-3.225C-72.03,-3.225,-72.03,3.225,-72.03,3.225C-72.03,7.46,-68.597,10.894,-64.362,10.894C-64.362,10.894,72.03,10.894,72.03,10.894C72.03,10.894,71.959,10.82,71.959,10.82C66.124,4.747,66.155,-4.859,72.03,-10.894Z" data-index="93" style="opacity: 1;"></path></g></g><g transform="matrix(1,0,0,1,260.456,335.108)" id="i57"><g id="i5"><path fill="#fae0b2" d="M40.291,-7.669C40.291,-7.669,-32.622,-7.669,-32.622,-7.669C-36.857,-7.669,-40.291,-4.235,-40.291,0C-40.291,0,-40.291,0,-40.291,0C-40.291,4.235,-36.857,7.669,-32.622,7.669C-32.622,7.669,40.289,7.669,40.289,7.669C37.609,2.92,37.613,-2.924,40.291,-7.669Z" data-index="94" style="opacity: 1;"></path></g></g><g transform="matrix(1,0,0,1,256.358,426.16)" id="i58"><g clip-path="url(#i0)" id="i59"><g id="i5"></g></g></g></svg>